<svg xmlns="http://www.w3.org/2000/svg" viewBox="0 0 64 64" role="img" aria-label="Just Cheesecakes favicon">
  <rect width="64" height="64" rx="14" fill="#fff8ed"/>
  <circle cx="32" cy="32" r="27" fill="#fffdf8" stroke="#3a1d2b" stroke-width="4"/>
  <path d="M14 36 44 19c4-2 8 0 8 5v18c0 3-3 5-6 4l-32-8c-3-1-3-3 0-5Z" fill="#fff8ed" stroke="#3a1d2b" stroke-width="2.5" stroke-linejoin="round"/>
  <path d="M18 35 44 21c2-1 5 0 5 3v4L21 39l-6-2c-1 0-1-1 0-2Z" fill="#f6d58d" stroke="#3a1d2b" stroke-width="2" stroke-linejoin="round"/>
  <path d="M22 40 49 29v12c0 2-2 3-4 3l-23-4Z" fill="#c6842f"/>
  <path d="M19 20c5-7 16-5 17 4 2 8-5 15-13 14-8-1-10-12-4-18Z" fill="#d84a4a" stroke="#3a1d2b" stroke-width="2" stroke-linejoin="round"/>
  <path d="M23 18c3-3 7-3 10 0m-5-5c2 3 2 6 1 9" fill="none" stroke="#5f7d65" stroke-width="2" stroke-linecap="round"/>
  <path d="M39 42 53 36l4 10-14 6Z" fill="#6f3f2a" stroke="#3a1d2b" stroke-width="2" stroke-linejoin="round"/>
</svg>
