<svg xmlns="http://www.w3.org/2000/svg" viewBox="0 0 64 64" role="img" aria-label="Just Cheesecakes favicon">
  <rect width="64" height="64" rx="14" fill="#fff8ed"/>
  <circle cx="32" cy="32" r="27" fill="#fffdf8" stroke="#3a1d2b" stroke-width="4"/>
  <path d="M13 36 48 32c2 0 3 3 2 4L36 50c-2 2-4 2-6 2l-17-5c-2-1-3-3-2-5l2-6Z" fill="#fff8ed" stroke="#3a1d2b" stroke-width="2.4" stroke-linejoin="round"/>
  <path d="M15 36 48 32 34 42c-1 1-3 1-5 1l-16-5Z" fill="#f6d58d" stroke="#3a1d2b" stroke-width="2" stroke-linejoin="round"/>
  <path d="M20 38c2 2 5 2 7 0m4-1c2 2 6 2 8 0" fill="none" stroke="#c6842f" stroke-width="2" stroke-linecap="round"/>
  <path d="M20 20c5-6 14-5 17 2 3 8-3 17-11 17-9-1-12-12-6-19Z" fill="#d84a4a" stroke="#3a1d2b" stroke-width="2" stroke-linejoin="round"/>
  <path d="M25 19c-3-4-8-3-11 0 5 0 8 2 10 6 2-5 6-7 11-6-3-3-7-4-10 0Z" fill="#5f7d65" stroke="#3a1d2b" stroke-width="1.5" stroke-linejoin="round"/>
  <path d="M43 44 55 39l4 10-12 5Z" fill="#6f3f2a" stroke="#3a1d2b" stroke-width="2" stroke-linejoin="round"/>
</svg>
